<?xml version="1.0" standalone="no"?>
<!DOCTYPE svg PUBLIC "-//W3C//DTD SVG 20010904//EN"
 "http://www.w3.org/TR/2001/REC-SVG-20010904/DTD/svg10.dtd">
<svg version="1.0" xmlns="http://www.w3.org/2000/svg"
 width="792.000000pt" height="792.000000pt" viewBox="0 0 792.000000 792.000000"
 preserveAspectRatio="xMidYMid meet">
<metadata>
Created by potrace 1.11, written by Peter Selinger 2001-2013
</metadata>
<g transform="translate(0.000000,792.000000) scale(0.100000,-0.100000)"
fill="#000000" stroke="none">
<path d="M0 3960 l0 -3960 3960 0 3960 0 0 3960 0 3960 -3960 0 -3960 0 0
-3960z m3700 970 l0 -289 -1057 -3 -1058 -3 -75 -23 c-251 -77 -411 -242 -456
-468 -17 -88 -13 -214 10 -300 42 -157 158 -291 318 -368 169 -81 150 -79 876
-83 l642 -4 0 195 0 196 -430 0 -430 0 2 263 3 262 828 3 827 2 0 -750 0 -751
-1187 4 c-1184 3 -1188 3 -1285 25 -421 96 -735 333 -893 674 -165 358 -134
827 78 1151 191 294 513 490 894 546 32 5 583 9 1226 10 l1167 1 0 -290z
m3062 258 c485 -120 809 -427 924 -876 32 -123 43 -329 24 -464 -62 -457 -363
-809 -824 -963 -215 -72 -134 -68 -1508 -72 l-1238 -4 0 1206 0 1206 1258 -4
1257 -3 107 -26z"/>
<path d="M4940 4015 l0 -626 698 4 c678 3 699 4 780 25 244 64 412 216 468
423 23 89 28 214 10 304 -44 226 -204 390 -456 466 -75 23 -79 23 -787 27
l-713 3 0 -626z"/>
</g>
</svg>
